<svg width="236" height="54" viewBox="0 0 236 54" fill="none" xmlns="http://www.w3.org/2000/svg">
<path d="M53.867 5.07546C56.5089 6.19207 58.5865 8.08771 59.9972 10.3988C59.0995 6.34788 56.3293 2.79031 52.2511 1.05048C45.5309 -1.80597 37.7848 1.36209 34.9377 8.13965C33.2192 12.2685 33.7065 16.7609 35.8354 20.2925C35.2455 17.6698 35.4251 14.8393 36.5536 12.1646C39.4007 5.38708 47.1468 2.21902 53.867 5.07546Z" fill="url(#paint0_linear_177_51576)"/>
<path d="M64.1524 34.1852C63.9729 36.2886 63.3573 38.2881 62.357 40.0539C61.331 41.8197 59.9459 43.2998 58.33 44.3905C56.6884 45.4811 54.8417 46.1822 52.9693 46.416C52.5076 46.4939 52.0202 46.5198 51.5586 46.5198C51.3277 46.5198 51.0712 46.5198 50.8404 46.5198L50.0709 46.4939L46.9673 46.39C45.2231 46.338 43.479 46.2861 41.7348 46.2342C38.5543 45.5331 35.4507 44.3385 32.6036 42.6247C29.7052 40.9108 27.0634 38.6776 24.8575 36.0548C22.6517 33.4321 20.8818 30.3939 19.702 27.122C18.4965 23.85 17.9065 20.3444 17.9065 16.8648C17.9065 20.3704 18.4452 23.8501 19.4711 27.1999C20.5228 30.5237 22.0617 33.7437 24.1137 36.6261C26.14 39.5345 28.628 42.1313 31.5007 44.2606C32.2958 44.8579 33.1423 45.4032 33.9887 45.9226C30.7312 45.8187 27.4737 45.7668 24.1906 45.7408C21.7539 45.7148 19.2916 45.7408 16.8549 45.7668H15.8802H15.4955C15.3672 45.7668 15.239 45.7668 15.1364 45.7668C14.9055 45.7668 14.7003 45.7668 14.4695 45.7408C14.2386 45.7148 14.0335 45.7148 13.8026 45.6629C13.5718 45.6369 13.3666 45.611 13.1357 45.559C12.2636 45.4032 11.4172 45.1176 10.5964 44.754C9.8013 44.3905 9.00617 43.949 8.31363 43.4037C7.59545 42.8584 6.95421 42.2352 6.38993 41.56C5.26135 40.1837 4.41492 38.5477 4.00453 36.7819C3.59414 35.0421 3.59414 33.1724 3.97888 31.4066C4.15843 30.5237 4.46622 29.6668 4.87661 28.8358C5.26135 28.0308 5.74869 27.2258 6.33863 26.5247C7.49285 25.0965 8.95487 23.9539 10.6221 23.1749C11.4429 22.7854 12.3406 22.4997 13.2383 22.318C13.7 22.2141 14.1361 22.1622 14.5977 22.1102L15.2903 22.0583L16.0598 22.0323L17.4705 21.9804L17.4192 20.6301C17.3679 19.1239 17.5218 17.6178 17.8809 16.1377C17.8809 16.3714 17.8809 16.5791 17.8809 16.8128C17.8809 16.5791 17.8809 16.3454 17.9065 16.1117C18.0348 15.5664 18.1887 15.047 18.3939 14.5277C19.112 12.5541 20.215 10.7104 21.6 9.12639C23.0107 7.54236 24.7549 6.21801 26.6786 5.25721C28.628 4.2964 30.7569 3.69915 32.9884 3.51737C30.7825 3.3356 28.4997 3.62124 26.3452 4.37431C24.1906 5.12737 22.1643 6.34785 20.4458 7.93188C18.7273 9.5159 17.2909 11.4635 16.3163 13.6448C15.5211 15.3846 15.0081 17.2802 14.8029 19.2278C14.6747 19.2278 14.5721 19.2278 14.4438 19.2278C13.8796 19.2538 13.2896 19.2797 12.7253 19.3836C11.5968 19.5394 10.4682 19.851 9.39091 20.2925C8.31363 20.7339 7.28766 21.2793 6.33863 21.9544C5.3896 22.6296 4.51752 23.4346 3.74804 24.3175C2.20907 26.0833 1.05485 28.2386 0.49056 30.5497C0.208417 31.6923 0.0288706 32.8868 0.00322118 34.0813C-0.0224282 35.2758 0.105819 36.4703 0.362313 37.6389C0.875301 39.976 1.92693 42.1832 3.44024 44.0269C4.95356 45.8706 6.87727 47.3768 9.05747 48.3376C10.1347 48.8309 11.289 49.1685 12.4432 49.3763C12.7253 49.4282 13.0331 49.4801 13.3153 49.5061C13.5974 49.558 13.9052 49.558 14.1874 49.584C14.4695 49.61 14.7773 49.61 15.0594 49.61H15.4698H15.8546H16.8549C19.2916 49.6359 21.7539 49.6359 24.1906 49.6359C29.9361 49.61 35.7072 49.4542 41.4527 49.1945H41.5809C41.6066 49.1945 41.6322 49.1945 41.6579 49.1945C43.402 49.1426 45.1462 49.0906 46.916 49.0387L50.0196 48.9348L50.7891 48.9088C51.0712 48.8829 51.3534 48.8829 51.6355 48.8569C52.1998 48.805 52.7384 48.7271 53.3027 48.5972C55.4829 48.1298 57.5349 47.0911 59.2277 45.6889C62.6647 42.8584 64.5115 38.3919 64.1524 34.1852Z" fill="url(#paint1_linear_177_51576)"/>
<path d="M47.4547 23.3049C47.9164 23.3049 48.455 23.4347 49.0706 23.7204C49.6862 24.006 50.2248 24.3696 50.6865 24.837C50.5583 23.8762 50.43 22.9933 50.2505 22.1363C50.0709 21.3054 49.8144 20.4225 49.481 19.5136C49.1476 18.6047 48.6859 17.618 48.1216 16.5533C47.5573 15.4886 46.8648 14.2681 46.0183 12.8918C46.0953 12.6841 46.2492 12.4244 46.5057 12.1388C46.7622 11.8531 47.0443 11.5935 47.3521 11.3338C47.6599 11.0741 47.9933 10.8664 48.3268 10.6846C48.6602 10.5028 48.9937 10.373 49.3015 10.321C49.9683 11.0481 50.5839 11.983 51.1739 13.0736C51.7638 14.1902 52.2768 15.3588 52.7128 16.6312C53.1489 17.9036 53.508 19.202 53.7388 20.5783C53.9953 21.9286 54.0979 23.227 54.0979 24.4734C54.0979 25.7199 53.9697 26.9923 53.6875 28.2907C53.4054 29.5891 53.0463 30.8615 52.5589 32.1079C52.0716 33.3544 51.533 34.5489 50.8917 35.6395C50.2505 36.7561 49.5836 37.7429 48.8398 38.6258C48.0959 39.5087 47.3264 40.2098 46.5313 40.7811C45.7362 41.3264 44.9411 41.69 44.1459 41.8198C42.53 41.638 41.2988 41.0927 40.4268 40.2358C39.5803 39.3789 39.1443 38.1843 39.1443 36.6523C39.1443 35.8473 39.2725 34.9644 39.5034 34.0036C39.7599 33.0427 40.0677 32.1079 40.4781 31.1731C40.8884 30.2382 41.3758 29.3294 41.9144 28.4205C42.4531 27.5376 43.043 26.7326 43.6842 26.0055C44.2998 25.3044 44.9411 24.6812 45.5566 24.1878C46.2235 23.7723 46.8391 23.4607 47.4547 23.3049ZM43.8638 40.4435C44.6846 40.1579 45.5053 39.5347 46.3261 38.5479C47.1469 37.5871 47.8907 36.4185 48.532 35.1202C49.1989 33.7958 49.7118 32.3936 50.1222 30.8874C50.5326 29.3813 50.7378 27.9271 50.7378 26.5249C50.7378 26.1094 50.7378 25.8757 50.7378 25.7718C50.7378 25.6679 50.7378 25.59 50.7122 25.4862C50.1479 25.7199 49.558 26.1354 48.9167 26.7066C48.2755 27.2779 47.6599 27.9271 47.0187 28.6802C46.3774 29.4332 45.7875 30.2382 45.2232 31.1211C44.6589 32.004 44.1459 32.8869 43.7099 33.7698C43.2738 34.6527 42.9148 35.4837 42.6583 36.2887C42.4018 37.0937 42.2735 37.8208 42.2735 38.4181C42.2735 39.6126 42.8122 40.2877 43.8638 40.4435Z" fill="#283F8B"/>
<path d="M54.1748 39.2489C54.3031 38.5477 54.5082 37.6648 54.7904 36.5223C55.0725 35.4057 55.4316 34.1852 55.8164 32.9128C56.2268 31.6404 56.6371 30.3679 57.0732 29.0955C57.5092 27.8231 57.9453 26.6546 58.3813 25.6418C58.6891 24.9147 58.9456 24.3175 59.2021 23.902C59.4329 23.4865 59.6894 23.1489 59.9716 22.8633C60.305 22.9152 60.6385 22.9931 60.9976 23.123C61.3566 23.2528 61.6901 23.3826 62.0235 23.5384C62.357 23.6942 62.6391 23.876 62.8956 24.0578C63.1521 24.2396 63.3573 24.3954 63.4855 24.5771C62.8443 25.3302 62.3057 26.2131 61.8183 27.1739C61.331 28.1607 60.8437 29.4071 60.3563 30.9133C61.6131 29.7707 62.7417 28.68 63.7164 27.6413C64.6911 26.6026 65.5888 25.4341 66.4352 24.1617C66.5635 24.0318 66.82 23.9799 67.1791 23.9799C67.5125 23.9799 67.8203 24.0318 68.1281 24.1357C68.4359 24.2396 68.6411 24.3954 68.7693 24.5771C68.3589 25.7197 68.1281 26.8363 68.1281 27.9529C68.1281 28.9916 68.282 29.7707 68.5898 30.316C68.5641 30.4458 68.4102 30.7315 68.1024 31.147C67.8203 31.5624 67.4869 31.926 67.1278 32.2895C66.4865 31.952 65.9222 31.5105 65.4349 30.9133C64.9476 30.342 64.5885 29.6928 64.332 29.0176C63.2291 29.7966 62.28 30.5757 61.5105 31.3028C60.7411 32.0558 60.0742 32.8868 59.5099 33.7957C58.9712 34.7045 58.4839 35.7692 58.0992 36.9378C57.7144 38.1323 57.3553 39.5345 56.9962 41.1705C56.791 41.1445 56.5346 41.0666 56.2524 40.9368C55.9703 40.8069 55.6625 40.6511 55.3803 40.4434C55.0982 40.2616 54.816 40.0539 54.5852 39.8461C54.38 39.6384 54.2261 39.4306 54.1748 39.2489Z" fill="#283F8B"/>
<path d="M81.7736 25.2003C81.671 26.6804 81.4145 27.9269 81.0042 28.9916C80.5938 30.0562 79.9782 30.9651 79.1831 31.7701C78.3879 32.5751 77.4389 33.2762 76.3103 33.9254C75.1817 34.5746 73.8736 35.1719 72.3603 35.7691C72.3603 35.899 72.3603 36.0548 72.3347 36.2106C72.3347 36.3664 72.309 36.5222 72.309 36.704C72.309 37.0156 72.3347 37.3272 72.386 37.6648C72.4373 38.0023 72.5142 38.314 72.6424 38.5996C72.7707 38.8852 72.9246 39.1189 73.1298 39.3007C73.335 39.4825 73.6171 39.5604 73.9506 39.5604C74.5918 39.5604 75.2074 39.4306 75.823 39.1449C76.4386 38.8593 77.0028 38.5217 77.5671 38.1062C78.1058 37.6907 78.6444 37.2493 79.1061 36.7559C79.5934 36.2625 80.0038 35.8211 80.3886 35.4315C80.6194 35.6393 80.8246 35.847 80.9785 36.0288C79.9269 37.457 78.7727 38.6256 77.5158 39.5604C76.259 40.4952 75.0791 41.0925 73.9506 41.3522C72.3346 41.1704 71.0778 40.5731 70.1801 39.5604C69.2824 38.5477 68.8207 37.3272 68.8207 35.899C68.8207 34.9382 68.9489 33.9254 69.2311 32.9127C69.5132 31.8999 69.8723 30.9391 70.3596 30.0043C70.847 29.0695 71.4113 28.1866 72.0525 27.3556C72.6937 26.5246 73.3863 25.7975 74.1301 25.1743C74.8739 24.5511 75.6434 24.0577 76.4129 23.7201C77.208 23.3566 77.9775 23.1748 78.747 23.1748C79.8499 23.3046 80.8503 24.0058 81.7736 25.2003ZM79.3626 26.3688C78.7214 26.4727 78.0801 26.7324 77.3876 27.1479C76.6951 27.5633 76.0795 28.1346 75.4639 28.8617C74.8483 29.5888 74.3097 30.3938 73.8223 31.3546C73.335 32.3154 72.9502 33.3282 72.6681 34.4188C74.5405 33.458 76.1051 32.2895 77.3363 30.9132C78.5931 29.5369 79.26 28.0308 79.3626 26.3688Z" fill="#283F8B"/>
<path d="M95.5473 25.5639C95.7781 25.5639 96.0603 25.6158 96.3681 25.6937C96.6759 25.7716 96.9837 25.8755 97.2402 26.0053C97.4966 26.1351 97.7275 26.265 97.8814 26.4208C98.0609 26.5506 98.1379 26.7064 98.1379 26.8103C97.6762 27.7971 97.2402 28.8098 96.8298 29.8226C96.4194 30.8353 96.0859 31.7961 95.8038 32.7309C95.5216 33.6658 95.3164 34.5227 95.1626 35.3277C95.0087 36.1327 94.9317 36.8338 94.9317 37.4311C94.9317 38.1062 95.0087 38.6516 95.1369 39.093C95.2651 39.5345 95.5216 39.8461 95.8294 40.0278C95.5473 40.2096 95.1882 40.3654 94.7265 40.4953C94.2905 40.6251 93.8801 40.677 93.521 40.677C92.2642 40.677 91.6229 39.7941 91.6229 38.0283C91.6229 36.678 92.059 34.8343 92.9567 32.4713C92.495 33.5619 91.9564 34.5746 91.3408 35.5354C90.7252 36.4962 90.1096 37.3272 89.4684 38.0803C88.8271 38.8074 88.1859 39.4046 87.5447 39.872C86.9034 40.3395 86.3135 40.5991 85.7749 40.703C84.9028 40.703 84.2103 40.3135 83.6716 39.5085C83.133 38.7035 82.8508 37.6908 82.8508 36.4443C82.8508 35.12 83.133 33.6917 83.6973 32.2116C84.2615 30.7314 84.9797 29.3551 85.8518 28.1087C86.7239 26.8363 87.6986 25.7976 88.7245 24.9406C89.7505 24.0837 90.7509 23.6682 91.7255 23.6682C91.9564 23.7461 92.2129 23.876 92.5207 24.0837C92.8028 24.2914 93.0849 24.5511 93.3671 24.8368C93.6236 25.1224 93.8544 25.408 94.0596 25.7197C94.2392 26.0053 94.3418 26.265 94.3674 26.4727C93.4184 26.6026 92.4694 27.07 91.469 27.849C90.4687 28.628 89.571 29.5629 88.7502 30.6795C87.9294 31.7701 87.2882 32.9646 86.7495 34.2111C86.2366 35.4575 85.9801 36.652 85.9801 37.7167C85.9801 38.1582 86.134 38.4438 86.4674 38.5737C87.1599 38.4438 87.9294 37.8466 88.8271 36.8079C89.7249 35.7691 90.8021 34.1851 92.059 32.0038C92.2898 31.5884 92.5463 31.095 92.8541 30.5756C93.1362 30.0563 93.444 29.5109 93.7518 28.9396C94.0596 28.3684 94.3674 27.7971 94.6496 27.1998C95.0087 26.6805 95.2908 26.1092 95.5473 25.5639Z" fill="#283F8B"/>
<path d="M120.273 29.0437C119.889 29.0437 119.453 29.2774 118.888 29.7448C118.35 30.2122 117.76 30.8095 117.144 31.5366C116.529 32.2637 115.887 33.0687 115.22 33.9516C114.553 34.8345 113.912 35.7174 113.297 36.5743C112.681 37.4312 112.091 38.2622 111.553 39.0153C111.014 39.7683 110.552 40.3916 110.193 40.833C109.68 40.6253 109.218 40.3137 108.859 39.8982C108.475 39.4827 108.218 38.9633 108.039 38.3401C108.167 37.613 108.321 36.834 108.526 36.055C108.731 35.25 109.013 34.445 109.347 33.588C109.68 32.7311 110.116 31.8482 110.603 30.9134C111.116 29.9785 111.732 28.9918 112.45 27.9531C112.091 27.9531 111.629 28.1868 111.014 28.6801C110.398 29.1735 109.757 29.7968 109.039 30.5758C108.321 31.3548 107.603 32.2118 106.859 33.1726C106.115 34.1334 105.397 35.0942 104.755 36.003C103.883 37.2495 103.165 38.3142 102.601 39.249C102.037 40.1838 101.601 40.7291 101.344 40.885C100.728 40.4435 100.318 39.9501 100.087 39.4308C99.8564 38.9114 99.6768 38.3142 99.5486 37.6909C99.5742 37.1196 99.6512 36.4185 99.8051 35.5616C99.959 34.7046 100.164 33.8217 100.446 32.9129C100.985 31.173 101.677 29.4592 102.55 27.7453C103.396 26.0314 104.242 24.4734 105.038 23.0452C105.704 23.175 106.294 23.4087 106.807 23.7203C107.346 24.0319 107.885 24.4734 108.475 25.0706C108.244 25.7977 107.885 26.5768 107.372 27.4077C106.859 28.2387 106.371 29.0956 105.833 29.9785C105.294 30.8874 104.807 31.7963 104.345 32.7571C103.909 33.7179 103.601 34.6787 103.473 35.6395C104.14 34.6787 104.909 33.588 105.807 32.3676C106.705 31.1211 107.628 29.9785 108.577 28.8879C109.526 27.7972 110.475 26.8624 111.399 26.1093C112.348 25.3563 113.168 24.9668 113.938 24.9668C114.22 24.9668 114.528 25.0187 114.861 25.0966C115.195 25.2005 115.503 25.3044 115.785 25.4602C116.067 25.59 116.298 25.7458 116.477 25.8756C116.657 26.0055 116.759 26.1093 116.785 26.1873C116.657 26.6547 116.4 27.3039 115.964 28.1348C115.528 28.9658 115.066 29.8227 114.579 30.7056C114.092 31.6145 113.63 32.4714 113.22 33.3284C112.809 34.1593 112.553 34.8345 112.476 35.3538C113.63 33.7698 114.707 32.3156 115.708 31.0172C116.708 29.7189 117.657 28.6022 118.555 27.6934C119.453 26.7585 120.273 26.0574 121.043 25.564C121.812 25.0706 122.53 24.811 123.197 24.811C123.659 24.811 124.095 24.9408 124.505 25.1745C124.916 25.4342 125.198 25.7977 125.378 26.2652C125.172 26.9663 124.813 27.8232 124.352 28.836C123.864 29.8227 123.377 30.8874 122.89 31.978C122.402 33.0947 121.966 34.1593 121.581 35.25C121.197 36.3406 120.992 37.2754 120.992 38.1324C120.992 38.6258 121.068 38.9633 121.197 39.1191C121.325 39.275 121.53 39.3529 121.787 39.3529C122.069 39.3529 122.325 39.3009 122.582 39.1971C122.838 39.0932 123.018 39.0412 123.12 39.0412C123.249 39.1451 123.351 39.249 123.377 39.4048C123.403 39.5346 123.403 39.6904 123.403 39.7943C122.941 40.1838 122.454 40.4954 121.966 40.7291C121.479 40.9888 120.915 41.0927 120.325 41.0927C119.76 41.0927 119.299 40.9888 118.94 40.807C118.58 40.6253 118.273 40.3656 118.042 40.028C117.811 39.6904 117.631 39.3269 117.554 38.8854C117.452 38.47 117.426 38.0025 117.426 37.5092C117.426 36.7042 117.529 35.8992 117.734 35.1201C117.939 34.3151 118.196 33.5621 118.478 32.835C118.76 32.1079 119.093 31.4327 119.401 30.8095C119.76 30.0824 120.042 29.5371 120.273 29.0437Z" fill="#283F8B"/>
<path d="M160.312 25.5639C160.543 25.5639 160.825 25.6158 161.133 25.6937C161.441 25.7716 161.748 25.8755 162.005 26.0053C162.261 26.1351 162.492 26.265 162.646 26.4208C162.826 26.5506 162.903 26.7064 162.903 26.8103C162.441 27.7971 162.005 28.8098 161.595 29.8226C161.184 30.8353 160.851 31.7961 160.569 32.7309C160.286 33.6658 160.081 34.5227 159.927 35.3277C159.773 36.1327 159.696 36.8338 159.696 37.4311C159.696 38.1062 159.773 38.6516 159.902 39.093C160.03 39.5345 160.286 39.8461 160.594 40.0278C160.312 40.2096 159.953 40.3654 159.491 40.4953C159.055 40.6251 158.645 40.677 158.286 40.677C157.029 40.677 156.388 39.7941 156.388 38.0283C156.388 36.678 156.824 34.8343 157.721 32.4713C157.26 33.5619 156.721 34.5746 156.106 35.5354C155.49 36.4962 154.874 37.3272 154.233 38.0803C153.592 38.8074 152.951 39.4046 152.309 39.872C151.668 40.3395 151.078 40.5991 150.54 40.703C149.668 40.703 148.975 40.3135 148.436 39.5085C147.898 38.7035 147.616 37.6908 147.616 36.4443C147.616 35.12 147.898 33.6917 148.462 32.2116C149.026 30.7314 149.745 29.3551 150.617 28.1087C151.489 26.8363 152.463 25.7976 153.489 24.9406C154.515 24.0837 155.516 23.6682 156.49 23.6682C156.721 23.7461 156.978 23.876 157.285 24.0837C157.568 24.2914 157.85 24.5511 158.132 24.8368C158.388 25.1224 158.619 25.408 158.824 25.7197C159.004 26.0053 159.107 26.265 159.132 26.4727C158.183 26.6026 157.234 27.07 156.234 27.849C155.233 28.628 154.336 29.5629 153.515 30.6795C152.694 31.7701 152.053 32.9646 151.514 34.2111C151.001 35.4575 150.745 36.652 150.745 37.7167C150.745 38.1582 150.899 38.4438 151.232 38.5737C151.925 38.4438 152.694 37.8466 153.592 36.8079C154.49 35.7691 155.567 34.1851 156.824 32.0038C157.055 31.5884 157.311 31.095 157.619 30.5756C157.901 30.0563 158.209 29.5109 158.517 28.9396C158.824 28.3684 159.132 27.7971 159.414 27.1998C159.773 26.6805 160.056 26.1092 160.312 25.5639Z" fill="#283F8B"/>
<path d="M162.133 51.7393C161.8 51.6354 161.62 51.2978 161.569 50.6746C161.466 50.363 161.415 49.9994 161.364 49.558C161.338 49.1425 161.312 48.6491 161.312 48.1038C161.312 47.6104 161.389 46.9353 161.569 46.0524C161.723 45.1954 161.954 44.2087 162.262 43.118C162.544 42.0274 162.903 40.8329 163.339 39.5864C163.749 38.314 164.237 37.0156 164.75 35.7172C165.391 34.0813 165.929 32.653 166.391 31.4585C166.853 30.264 167.263 29.2253 167.571 28.3424C167.879 27.4595 168.135 26.7324 168.34 26.1611C168.546 25.5898 168.7 25.0965 168.828 24.7069C168.93 24.4213 169.059 24.0837 169.238 23.6682C169.418 23.2527 169.649 22.8632 169.879 22.4478C170.136 22.0323 170.367 21.6428 170.623 21.2792C170.88 20.9157 171.111 20.63 171.316 20.4482C172.137 20.5781 172.906 20.7858 173.65 21.0974C174.368 21.409 174.83 21.6947 174.984 21.9803C174.65 22.2919 174.291 22.7594 173.855 23.4345C173.445 24.0837 173.034 24.8108 172.624 25.5639C172.213 26.3429 171.854 27.1219 171.521 27.9269C171.188 28.7319 170.957 29.459 170.777 30.0563C171.008 29.6408 171.316 29.2253 171.701 28.7319C172.085 28.2645 172.65 27.6153 173.419 26.7844C174.291 25.8755 175.112 25.2003 175.856 24.7069C176.625 24.2136 177.292 23.9798 177.856 23.9798C178.754 23.9798 179.472 24.2395 180.062 24.7329C180.627 25.2263 180.934 25.8755 180.934 26.6545C180.934 28.3684 180.652 30.0563 180.088 31.7182C179.524 33.3801 178.728 34.9122 177.651 36.2625C177.241 36.7819 176.779 37.2753 176.24 37.7687C175.702 38.2361 175.138 38.6775 174.548 39.0411C173.958 39.4046 173.393 39.6903 172.829 39.924C172.265 40.1317 171.752 40.2356 171.316 40.2356C170.905 40.2356 170.521 40.1577 170.213 39.9759C169.905 39.7942 169.674 39.5864 169.572 39.3267C170.495 38.7814 171.367 38.0283 172.239 37.0416C173.111 36.0808 173.906 34.9382 174.65 33.6658C175.394 32.3934 176.035 31.0171 176.574 29.5629C177.113 28.0827 177.549 26.6026 177.831 25.0705C176.933 25.5379 176.138 26.0573 175.42 26.6285C174.701 27.1739 173.983 27.9269 173.291 28.8098C172.444 29.8485 171.777 30.7055 171.29 31.3287C170.803 31.9779 170.392 32.5232 170.085 32.9647C169.777 33.4061 169.52 33.8476 169.315 34.2371C169.11 34.6266 168.905 35.12 168.674 35.6913C168.34 36.4443 167.956 37.4571 167.52 38.7035C167.084 39.95 166.648 41.3522 166.186 42.8843C165.724 44.4164 165.262 46.0783 164.826 47.8182C164.39 49.558 163.929 51.2978 163.518 53.0377C163.262 52.9857 163.031 52.804 162.851 52.4664C162.672 52.2586 162.518 52.1028 162.441 51.999C162.338 51.8691 162.262 51.7912 162.133 51.7393Z" fill="#283F8B"/>
<path d="M202.813 39.3529C202.813 38.5219 202.89 37.5351 203.07 36.4185C203.224 35.3019 203.48 34.0814 203.788 32.809C204.096 31.5366 204.48 30.1863 204.916 28.784C205.353 27.3818 205.84 25.9795 206.378 24.5773C206.84 23.3308 207.404 22.0584 208.02 20.76C208.636 19.4876 209.328 18.2152 210.046 16.9947C210.765 15.7483 211.534 14.5797 212.304 13.4631C213.099 12.3465 213.868 11.3338 214.689 10.3989C215.074 10.3989 215.458 10.4509 215.894 10.5288C216.33 10.6326 216.741 10.7365 217.151 10.8923C217.562 11.0481 217.946 11.2299 218.28 11.4376C218.613 11.6454 218.895 11.8531 219.101 12.0868C217.331 13.9046 215.766 15.7742 214.355 17.6179C212.945 19.4876 211.842 21.2274 211.021 22.8634C210.585 23.7723 210.175 24.6032 209.816 25.3823C209.456 26.1613 209.123 26.9403 208.815 27.7194C208.507 28.4984 208.225 29.2514 207.994 30.0305C207.738 30.8095 207.507 31.6145 207.302 32.4714C211.816 26.6547 215.151 23.7463 217.331 23.7463C217.946 23.7463 218.588 23.954 219.306 24.3436C219.998 24.759 220.64 25.3044 221.178 25.9795C220.46 26.7845 219.691 27.7713 218.921 28.8879C218.152 30.0305 217.433 31.1731 216.792 32.3156C216.151 33.4582 215.612 34.5489 215.202 35.5097C214.792 36.4964 214.586 37.2235 214.586 37.6909C214.586 37.9246 214.612 38.0805 214.689 38.1843C214.766 38.2622 214.92 38.3142 215.151 38.3142C215.51 38.3142 215.792 38.2622 215.997 38.1843C216.202 38.0805 216.33 38.0545 216.382 38.0545C216.51 38.2363 216.561 38.3661 216.587 38.444C216.613 38.5219 216.613 38.5738 216.613 38.6258C216.613 38.7296 216.484 38.8595 216.202 39.0413C215.92 39.223 215.587 39.4048 215.202 39.5866C214.817 39.7684 214.432 39.9242 214.048 40.08C213.663 40.2098 213.381 40.2877 213.201 40.2877C212.97 40.2877 212.74 40.2098 212.509 40.08C212.278 39.9501 212.073 39.7683 211.893 39.5606C211.714 39.3529 211.585 39.1192 211.483 38.8595C211.38 38.5998 211.329 38.3142 211.329 38.0285C211.329 37.665 211.431 37.1456 211.637 36.4445C211.842 35.7434 212.124 34.9124 212.457 33.9776C212.817 33.0427 213.227 32.004 213.714 30.8874C214.202 29.7708 214.74 28.6282 215.305 27.4597C215.305 27.3558 215.253 27.3298 215.176 27.3298C215.099 27.3298 214.92 27.4337 214.638 27.6155C214.355 27.7973 214.073 28.005 213.817 28.1868C212.97 28.836 212.124 29.615 211.278 30.5498C210.431 31.4847 209.585 32.5234 208.79 33.64C207.969 34.7566 207.225 35.9251 206.507 37.1716C205.789 38.418 205.173 39.6645 204.66 40.9369C204.583 41.0927 204.48 41.2485 204.352 41.4043C204.224 41.5601 204.096 41.6121 203.993 41.6121C203.916 41.6121 203.814 41.5342 203.685 41.3524C203.557 41.1966 203.429 40.9888 203.326 40.7292C203.224 40.4695 203.121 40.2358 203.018 39.9761C202.865 39.7684 202.813 39.5346 202.813 39.3529Z" fill="#283F8B"/>
<path d="M232.413 25.5639C232.643 25.5639 232.926 25.6158 233.233 25.6937C233.541 25.7716 233.849 25.8755 234.106 26.0053C234.362 26.1351 234.593 26.265 234.747 26.4208C234.926 26.5506 235.003 26.7064 235.003 26.8103C234.542 27.7971 234.106 28.8098 233.695 29.8226C233.285 30.8353 232.951 31.7961 232.669 32.7309C232.387 33.6658 232.182 34.5227 232.028 35.3277C231.874 36.1327 231.797 36.8338 231.797 37.4311C231.797 38.1062 231.874 38.6516 232.002 39.093C232.131 39.5345 232.387 39.8461 232.695 40.0278C232.413 40.2096 232.054 40.3654 231.592 40.4953C231.156 40.6251 230.745 40.677 230.386 40.677C229.13 40.677 228.488 39.7941 228.488 38.0283C228.488 36.678 228.924 34.8343 229.822 32.4713C229.36 33.5619 228.822 34.5746 228.206 35.5354C227.591 36.4962 226.975 37.3272 226.334 38.0803C225.693 38.8074 225.051 39.4046 224.41 39.872C223.769 40.3395 223.179 40.5991 222.64 40.703C221.768 40.703 221.076 40.3135 220.537 39.5085C219.998 38.7035 219.716 37.6908 219.716 36.4443C219.716 35.12 219.998 33.6917 220.563 32.2116C221.127 30.7314 221.845 29.3551 222.717 28.1087C223.589 26.8363 224.564 25.7976 225.59 24.9406C226.616 24.0837 227.616 23.6682 228.591 23.6682C228.822 23.7461 229.078 23.876 229.386 24.0837C229.668 24.2914 229.95 24.5511 230.232 24.8368C230.489 25.1224 230.72 25.408 230.925 25.7197C231.105 26.0053 231.207 26.265 231.233 26.4727C230.284 26.6026 229.335 27.07 228.334 27.849C227.334 28.628 226.436 29.5629 225.616 30.6795C224.795 31.7701 224.154 32.9646 223.615 34.2111C223.102 35.4575 222.845 36.652 222.845 37.7167C222.845 38.1582 222.999 38.4438 223.333 38.5737C224.025 38.4438 224.795 37.8466 225.693 36.8079C226.59 35.7691 227.668 34.1851 228.924 32.0038C229.155 31.5884 229.412 31.095 229.719 30.5756C230.002 30.0563 230.309 29.5109 230.617 28.9396C230.925 28.3684 231.233 27.7971 231.515 27.1998C231.874 26.6805 232.156 26.1092 232.413 25.5639Z" fill="#283F8B"/>
<path d="M127.737 30.8613C127.737 29.0695 127.942 27.3297 128.353 25.6158C128.763 23.9019 129.353 22.266 130.097 20.7339C130.841 19.2018 131.739 17.7736 132.79 16.5011C133.842 15.2028 134.97 14.1121 136.227 13.1513C137.484 12.2165 138.792 11.4894 140.203 10.9441C141.614 10.4247 143.05 10.165 144.538 10.165C146.282 10.165 147.616 10.5286 148.59 11.2816C149.565 12.0087 150.052 13.0474 150.052 14.3718C150.052 14.8912 149.975 15.4105 149.847 15.9299C149.719 16.4752 149.514 16.9945 149.232 17.5139C148.975 18.0332 148.667 18.5266 148.308 19.02C147.949 19.5134 147.564 19.9289 147.128 20.2924C146.487 20.1886 145.897 19.9029 145.435 19.3836C144.948 18.8902 144.666 18.3189 144.538 17.6437C145.41 16.9166 146.102 16.1376 146.641 15.3326C147.154 14.5276 147.41 13.8005 147.41 13.1254C147.41 12.0087 146.718 11.4375 145.333 11.4375C144.743 11.4375 144.153 11.5673 143.537 11.801C142.922 12.0347 142.306 12.3723 141.665 12.8137C141.049 13.2552 140.434 13.7745 139.844 14.3718C139.254 14.995 138.715 15.6442 138.202 16.3973C134.714 21.4869 132.97 26.6805 132.97 32.0038C132.97 33.8995 133.252 35.4056 133.842 36.5482C134.432 37.6908 135.176 38.3659 136.15 38.5737C137.228 38.314 138.613 37.6129 140.254 36.4703C141.896 35.3277 143.717 33.8475 145.692 32.0038C145.948 32.2635 146.102 32.5232 146.154 32.8088C145.435 33.7696 144.666 34.7045 143.896 35.5874C143.127 36.4703 142.332 37.2753 141.588 38.0283C140.819 38.7554 140.075 39.4046 139.331 39.9759C138.587 40.5212 137.894 40.9627 137.279 41.2743C134.15 41.2743 131.79 40.3914 130.2 38.6256C128.558 36.8598 127.737 34.263 127.737 30.8613Z" fill="#283F8B"/>
<path d="M183.217 30.8613C183.217 29.0695 183.422 27.3297 183.833 25.6158C184.243 23.9019 184.833 22.266 185.577 20.7339C186.321 19.2018 187.219 17.7736 188.27 16.5011C189.322 15.2028 190.45 14.1121 191.707 13.1513C192.938 12.2165 194.272 11.4894 195.683 10.9441C197.094 10.4247 198.53 10.165 200.018 10.165C201.762 10.165 203.096 10.5286 204.07 11.2816C205.045 12.0087 205.532 13.0474 205.532 14.3718C205.532 14.8912 205.455 15.4105 205.327 15.9299C205.199 16.4752 204.994 16.9945 204.711 17.5139C204.455 18.0332 204.147 18.5266 203.788 19.02C203.429 19.5134 203.044 19.9289 202.608 20.2924C201.967 20.1886 201.377 19.9029 200.915 19.3836C200.428 18.8902 200.146 18.3189 200.018 17.6437C200.89 16.9166 201.582 16.1376 202.121 15.3326C202.634 14.5276 202.89 13.8005 202.89 13.1254C202.89 12.0087 202.198 11.4375 200.813 11.4375C200.223 11.4375 199.633 11.5673 199.017 11.801C198.402 12.0347 197.786 12.3723 197.145 12.8137C196.529 13.2552 195.914 13.7745 195.324 14.3718C194.734 14.995 194.195 15.6442 193.682 16.3973C190.194 21.4869 188.45 26.6805 188.45 32.0038C188.45 33.8995 188.732 35.4056 189.322 36.5482C189.912 37.6908 190.656 38.3659 191.63 38.5737C192.708 38.314 194.093 37.6129 195.734 36.4703C197.376 35.3277 199.197 33.8475 201.172 32.0038C201.428 32.2635 201.582 32.5232 201.634 32.8088C200.915 33.7696 200.146 34.7045 199.376 35.5874C198.607 36.4703 197.812 37.2753 197.068 38.0283C196.298 38.7554 195.555 39.4046 194.811 39.9759C194.067 40.5212 193.374 40.9627 192.759 41.2743C189.63 41.2743 187.27 40.3914 185.68 38.6256C184.012 36.8598 183.217 34.263 183.217 30.8613Z" fill="#283F8B"/>
<defs>
<linearGradient id="paint0_linear_177_51576" x1="33.8879" y1="10.1398" x2="59.9791" y2="10.1398" gradientUnits="userSpaceOnUse">
<stop stop-color="#9061A9"/>
<stop offset="0.1505" stop-color="#8B5DA7"/>
<stop offset="0.3767" stop-color="#7C53A2"/>
<stop offset="0.6506" stop-color="#65449A"/>
<stop offset="0.9594" stop-color="#433191"/>
<stop offset="0.9993" stop-color="#3E2F8F"/>
</linearGradient>
<linearGradient id="paint1_linear_177_51576" x1="0.00322118" y1="26.5713" x2="64.202" y2="26.5713" gradientUnits="userSpaceOnUse">
<stop stop-color="#CBEAED"/>
<stop offset="0.3877" stop-color="#26C1DB"/>
<stop offset="1" stop-color="#353794"/>
</linearGradient>
</defs>
</svg>
