<svg width="236" height="54" viewBox="0 0 236 54" fill="none" xmlns="http://www.w3.org/2000/svg">
<path d="M54.8641 5.13674C57.506 6.25335 59.5836 8.14899 60.9943 10.4601C60.0965 6.40916 57.3264 2.85159 53.2481 1.11176C46.528 -1.74469 38.7819 1.42337 35.9348 8.20093C34.2163 12.3298 34.7036 16.8222 36.8325 20.3538C36.2426 17.7311 36.4221 14.9006 37.5507 12.2259C40.3978 5.44835 48.1439 2.2803 54.8641 5.13674Z" fill="white"/>
<path d="M65.1495 34.2465C64.9699 36.3498 64.3544 38.3493 63.354 40.1152C62.3281 41.881 60.943 43.3611 59.3271 44.4518C57.6855 45.5424 55.8387 46.2435 53.9663 46.4772C53.5047 46.5551 53.0173 46.5811 52.5556 46.5811C52.3248 46.5811 52.0683 46.5811 51.8374 46.5811L51.068 46.5551L47.9644 46.4513C46.2202 46.3993 44.4761 46.3474 42.7319 46.2955C39.5514 45.5943 36.4478 44.3998 33.6007 42.686C30.7023 40.9721 28.0604 38.7389 25.8546 36.1161C23.6487 33.4934 21.8789 30.4552 20.699 27.1833C19.4935 23.9113 18.9036 20.4057 18.9036 16.926C18.9036 20.4317 19.4422 23.9113 20.4682 27.2612C21.5198 30.585 23.0588 33.805 25.1107 36.6874C27.1371 39.5958 29.625 42.1926 32.4978 44.3219C33.2929 44.9192 34.1393 45.4645 34.9858 45.9838C31.7283 45.88 28.4708 45.828 25.1877 45.8021C22.751 45.7761 20.2887 45.8021 17.852 45.828H16.8773H16.4925C16.3643 45.828 16.236 45.828 16.1334 45.828C15.9026 45.828 15.6974 45.828 15.4666 45.8021C15.2357 45.7761 15.0305 45.7761 14.7997 45.7242C14.5688 45.6982 14.3636 45.6722 14.1328 45.6203C13.2607 45.4645 12.4143 45.1788 11.5935 44.8153C10.7984 44.4517 10.0032 44.0103 9.3107 43.465C8.59252 42.9197 7.95128 42.2964 7.387 41.6213C6.25842 40.245 5.41199 38.609 5.0016 36.8432C4.59121 35.1034 4.59121 33.2337 4.97595 31.4679C5.1555 30.585 5.46329 29.7281 5.87368 28.8971C6.25842 28.0921 6.74576 27.2871 7.3357 26.586C8.48992 25.1578 9.95194 24.0152 11.6192 23.2362C12.4399 22.8467 13.3377 22.561 14.2354 22.3792C14.6971 22.2754 15.1331 22.2234 15.5948 22.1715L16.2873 22.1196L17.0568 22.0936L18.4675 22.0417L18.4162 20.6913C18.3649 19.1852 18.5188 17.6791 18.8779 16.1989C18.8779 16.4326 18.8779 16.6404 18.8779 16.8741C18.8779 16.6404 18.8779 16.4067 18.9036 16.173C19.0318 15.6276 19.1857 15.1083 19.3909 14.5889C20.1091 12.6154 21.212 10.7717 22.5971 9.18767C24.0078 7.60364 25.752 6.27929 27.6757 5.31849C29.625 4.35768 31.7539 3.76043 33.9854 3.57865C31.7796 3.39688 29.4968 3.68252 27.3422 4.43558C25.1877 5.18865 23.1614 6.40913 21.4429 7.99315C19.7244 9.57718 18.288 11.5248 17.3133 13.706C16.5182 15.4459 16.0052 17.3415 15.8 19.2891C15.6718 19.2891 15.5692 19.2891 15.4409 19.2891C14.8766 19.3151 14.2867 19.341 13.7224 19.4449C12.5938 19.6007 11.4653 19.9123 10.388 20.3538C9.3107 20.7952 8.28473 21.3405 7.3357 22.0157C6.38667 22.6908 5.51459 23.4958 4.74511 24.3787C3.20614 26.1445 2.05192 28.2999 1.48763 30.611C1.20549 31.7536 1.02594 32.9481 1.00029 34.1426C0.974642 35.3371 1.10289 36.5316 1.35938 37.7002C1.87237 40.0373 2.924 42.2445 4.43731 44.0882C5.95063 45.9319 7.87434 47.438 10.0545 48.3988C11.1318 48.8922 12.286 49.2298 13.4403 49.4375C13.7224 49.4895 14.0302 49.5414 14.3123 49.5674C14.5945 49.6193 14.9023 49.6193 15.1844 49.6453C15.4666 49.6712 15.7744 49.6713 16.0565 49.6713H16.4669H16.8516H17.852C20.2887 49.6972 22.751 49.6972 25.1877 49.6972C30.9332 49.6712 36.7043 49.5154 42.4498 49.2558H42.578C42.6037 49.2558 42.6293 49.2558 42.6549 49.2558C44.3991 49.2038 46.1433 49.1519 47.9131 49.1L51.0167 48.9961L51.7861 48.9701C52.0683 48.9442 52.3504 48.9442 52.6326 48.9182C53.1969 48.8663 53.7355 48.7883 54.2998 48.6585C56.48 48.1911 58.5319 47.1524 60.2248 45.7501C63.6618 42.9197 65.5086 38.4532 65.1495 34.2465Z" fill="white"/>
<path d="M48.452 23.366C48.9137 23.366 49.4523 23.4959 50.0679 23.7815C50.6835 24.0672 51.2222 24.4307 51.6838 24.8981C51.5556 23.9373 51.4273 23.0544 51.2478 22.1975C51.0683 21.3665 50.8118 20.4836 50.4783 19.5748C50.1449 18.6659 49.6832 17.6791 49.1189 16.6144C48.5546 15.5498 47.8621 14.3293 47.0156 12.953C47.0926 12.7453 47.2465 12.4856 47.503 12.1999C47.7595 11.9143 48.0416 11.6546 48.3494 11.3949C48.6572 11.1353 48.9906 10.9275 49.3241 10.7457C49.6575 10.564 49.991 10.4341 50.2988 10.3822C50.9657 11.1093 51.5812 12.0441 52.1712 13.1348C52.7611 14.2514 53.2741 15.4199 53.7101 16.6923C54.1462 17.9648 54.5053 19.2631 54.7361 20.6394C54.9926 21.9897 55.0952 23.2881 55.0952 24.5346C55.0952 25.781 54.967 27.0534 54.6848 28.3518C54.4027 29.6502 54.0436 30.9226 53.5562 32.1691C53.0689 33.4155 52.5303 34.61 51.889 35.7007C51.2478 36.8173 50.5809 37.8041 49.8371 38.687C49.0932 39.5699 48.3238 40.271 47.5286 40.8423C46.7335 41.3876 45.9384 41.7511 45.1432 41.881C43.5273 41.6992 42.2962 41.1539 41.4241 40.2969C40.5776 39.44 40.1416 38.2455 40.1416 36.7134C40.1416 35.9084 40.2698 35.0255 40.5007 34.0647C40.7572 33.1039 41.065 32.1691 41.4754 31.2342C41.8858 30.2994 42.3731 29.3905 42.9117 28.4817C43.4504 27.5988 44.0403 26.7938 44.6815 26.0667C45.2971 25.3655 45.9384 24.7423 46.554 24.2489C47.2208 23.8335 47.8364 23.5218 48.452 23.366ZM44.8611 40.5047C45.6819 40.219 46.5027 39.5958 47.3234 38.6091C48.1442 37.6482 48.8881 36.4797 49.5293 35.1813C50.1962 33.857 50.7092 32.4547 51.1196 30.9486C51.5299 29.4425 51.7351 27.9883 51.7351 26.586C51.7351 26.1705 51.7351 25.9368 51.7351 25.833C51.7351 25.7291 51.7351 25.6512 51.7095 25.5473C51.1452 25.781 50.5553 26.1965 49.914 26.7678C49.2728 27.3391 48.6572 27.9883 48.016 28.7413C47.3747 29.4944 46.7848 30.2994 46.2205 31.1823C45.6562 32.0652 45.1432 32.9481 44.7072 33.831C44.2712 34.7139 43.9121 35.5449 43.6556 36.3499C43.3991 37.1549 43.2708 37.882 43.2708 38.4792C43.2708 39.6737 43.8095 40.3489 44.8611 40.5047Z" fill="white"/>
<path d="M55.1719 39.3102C55.3001 38.609 55.5053 37.7261 55.7875 36.5835C56.0696 35.4669 56.4287 34.2465 56.8134 32.974C57.2238 31.7016 57.6342 30.4292 58.0703 29.1568C58.5063 27.8844 58.9423 26.7158 59.3784 25.7031C59.6862 24.976 59.9427 24.3787 60.1992 23.9633C60.43 23.5478 60.6865 23.2102 60.9686 22.9246C61.3021 22.9765 61.6355 23.0544 61.9946 23.1842C62.3537 23.3141 62.6872 23.4439 63.0206 23.5997C63.354 23.7555 63.6362 23.9373 63.8927 24.1191C64.1492 24.3008 64.3544 24.4567 64.4826 24.6384C63.8414 25.3915 63.3027 26.2744 62.8154 27.2352C62.3281 28.222 61.8407 29.4684 61.3534 30.9745C62.6102 29.832 63.7388 28.7413 64.7135 27.7026C65.6881 26.6639 66.5859 25.4954 67.4323 24.2229C67.5605 24.0931 67.817 24.0412 68.1761 24.0412C68.5096 24.0412 68.8174 24.0931 69.1252 24.197C69.433 24.3008 69.6382 24.4567 69.7664 24.6384C69.356 25.781 69.1252 26.8976 69.1252 28.0142C69.1252 29.0529 69.2791 29.832 69.5868 30.3773C69.5612 30.5071 69.4073 30.7928 69.0995 31.2082C68.8174 31.6237 68.4839 31.9873 68.1248 32.3508C67.4836 32.0132 66.9193 31.5718 66.432 30.9745C65.9446 30.4032 65.5855 29.7541 65.329 29.0789C64.2261 29.8579 63.2771 30.637 62.5076 31.364C61.7381 32.1171 61.0712 32.9481 60.507 33.8569C59.9683 34.7658 59.481 35.8305 59.0962 36.999C58.7115 38.1935 58.3524 39.5958 57.9933 41.2318C57.7881 41.2058 57.5316 41.1279 57.2495 40.9981C56.9673 40.8682 56.6595 40.7124 56.3774 40.5047C56.0953 40.3229 55.8131 40.1152 55.5823 39.9074C55.3771 39.6997 55.2232 39.4919 55.1719 39.3102Z" fill="white"/>
<path d="M82.7703 25.2617C82.6677 26.7418 82.4112 27.9883 82.0009 29.053C81.5905 30.1176 80.9749 31.0265 80.1798 31.8315C79.3846 32.6365 78.4356 33.3376 77.307 33.9868C76.1784 34.636 74.8703 35.2333 73.357 35.8305C73.357 35.9604 73.357 36.1162 73.3314 36.272C73.3314 36.4278 73.3057 36.5836 73.3057 36.7654C73.3057 37.077 73.3314 37.3886 73.3827 37.7262C73.434 38.0637 73.5109 38.3754 73.6392 38.661C73.7674 38.9466 73.9213 39.1803 74.1265 39.3621C74.3317 39.5439 74.6138 39.6218 74.9473 39.6218C75.5885 39.6218 76.2041 39.492 76.8197 39.2063C77.4353 38.9207 77.9995 38.5831 78.5638 38.1676C79.1025 37.7521 79.6411 37.3107 80.1028 36.8173C80.5901 36.3239 81.0005 35.8825 81.3853 35.4929C81.6161 35.7007 81.8213 35.9084 81.9752 36.0902C80.9236 37.5184 79.7694 38.687 78.5125 39.6218C77.2557 40.5566 76.0758 41.1539 74.9473 41.4136C73.3314 41.2318 72.0745 40.6345 71.1768 39.6218C70.2791 38.6091 69.8174 37.3886 69.8174 35.9604C69.8174 34.9996 69.9456 33.9868 70.2278 32.9741C70.5099 31.9613 70.869 31.0005 71.3563 30.0657C71.8437 29.1309 72.408 28.248 73.0492 27.417C73.6904 26.586 74.383 25.8589 75.1268 25.2357C75.8706 24.6125 76.6401 24.1191 77.4096 23.7815C78.2047 23.418 78.9742 23.2362 79.7437 23.2362C80.8466 23.366 81.847 24.0672 82.7703 25.2617ZM80.3593 26.4302C79.7181 26.5341 79.0768 26.7938 78.3843 27.2093C77.6918 27.6247 77.0762 28.196 76.4606 28.9231C75.845 29.6502 75.3064 30.4552 74.819 31.416C74.3317 32.3768 73.9469 33.3896 73.6648 34.4802C75.5372 33.5194 77.1018 32.3509 78.333 30.9746C79.5898 29.5983 80.2567 28.0922 80.3593 26.4302Z" fill="white"/>
<path d="M96.5441 25.6253C96.775 25.6253 97.0571 25.6772 97.3649 25.7551C97.6727 25.833 97.9805 25.9369 98.237 26.0667C98.4935 26.1965 98.7243 26.3264 98.8782 26.4822C99.0578 26.612 99.1347 26.7678 99.1347 26.8717C98.673 27.8585 98.237 28.8712 97.8266 29.884C97.4162 30.8967 97.0828 31.8575 96.8006 32.7923C96.5185 33.7272 96.3133 34.5841 96.1594 35.3891C96.0055 36.1941 95.9285 36.8952 95.9285 37.4925C95.9285 38.1676 96.0055 38.713 96.1337 39.1544C96.262 39.5959 96.5185 39.9075 96.8263 40.0892C96.5441 40.271 96.185 40.4268 95.7233 40.5567C95.2873 40.6865 94.8769 40.7384 94.5178 40.7384C93.261 40.7384 92.6198 39.8555 92.6198 38.0897C92.6198 36.7394 93.0558 34.8957 93.9535 32.5327C93.4918 33.6233 92.9532 34.636 92.3376 35.5968C91.722 36.5576 91.1064 37.3886 90.4652 38.1417C89.824 38.8688 89.1827 39.466 88.5415 39.9334C87.9003 40.4009 87.3103 40.6605 86.7717 40.7644C85.8996 40.7644 85.2071 40.3749 84.6684 39.5699C84.1298 38.7649 83.8477 37.7522 83.8477 36.5057C83.8477 35.1814 84.1298 33.7531 84.6941 32.273C85.2584 30.7928 85.9766 29.4165 86.8486 28.1701C87.7207 26.8977 88.6954 25.859 89.7214 25.002C90.7473 24.1451 91.7477 23.7296 92.7224 23.7296C92.9532 23.8075 93.2097 23.9374 93.5175 24.1451C93.7996 24.3528 94.0818 24.6125 94.3639 24.8982C94.6204 25.1838 94.8513 25.4694 95.0565 25.7811C95.236 26.0667 95.3386 26.3264 95.3642 26.5341C94.4152 26.664 93.4662 27.1314 92.4659 27.9104C91.4655 28.6894 90.5678 29.6243 89.747 30.7409C88.9262 31.8315 88.285 33.026 87.7464 34.2725C87.2334 35.5189 86.9769 36.7134 86.9769 37.7781C86.9769 38.2196 87.1308 38.5052 87.4642 38.6351C88.1568 38.5052 88.9262 37.908 89.824 36.8693C90.7217 35.8305 91.799 34.2465 93.0558 32.0652C93.2866 31.6498 93.5431 31.1564 93.8509 30.637C94.1331 30.1177 94.4409 29.5723 94.7487 29.0011C95.0565 28.4298 95.3642 27.8585 95.6464 27.2612C96.0055 26.7419 96.2876 26.1706 96.5441 25.6253Z" fill="white"/>
<path d="M121.271 29.1049C120.886 29.1049 120.45 29.3386 119.886 29.806C119.347 30.2734 118.757 30.8707 118.141 31.5977C117.526 32.3248 116.885 33.1298 116.218 34.0127C115.551 34.8956 114.91 35.7785 114.294 36.6355C113.678 37.4924 113.088 38.3234 112.55 39.0764C112.011 39.8295 111.55 40.4527 111.19 40.8942C110.677 40.6864 110.216 40.3748 109.857 39.9593C109.472 39.5439 109.215 39.0245 109.036 38.4013C109.164 37.6742 109.318 36.8952 109.523 36.1161C109.728 35.3111 110.011 34.5061 110.344 33.6492C110.677 32.7923 111.113 31.9094 111.601 30.9745C112.114 30.0397 112.729 29.0529 113.448 28.0142C113.088 28.0142 112.627 28.2479 112.011 28.7413C111.396 29.2347 110.754 29.8579 110.036 30.6369C109.318 31.416 108.6 32.2729 107.856 33.2337C107.112 34.1945 106.394 35.1553 105.753 36.0642C104.881 37.3106 104.162 38.3753 103.598 39.3101C103.034 40.245 102.598 40.7903 102.341 40.9461C101.726 40.5047 101.315 40.0113 101.085 39.4919C100.854 38.9726 100.674 38.3753 100.546 37.7521C100.572 37.1808 100.648 36.4797 100.802 35.6227C100.956 34.7658 101.161 33.8829 101.444 32.974C101.982 31.2342 102.675 29.5203 103.547 27.8065C104.393 26.0926 105.24 24.5345 106.035 23.1063C106.702 23.2362 107.292 23.4699 107.805 23.7815C108.343 24.0931 108.882 24.5345 109.472 25.1318C109.241 25.8589 108.882 26.6379 108.369 27.4689C107.856 28.2999 107.369 29.1568 106.83 30.0397C106.291 30.9486 105.804 31.8574 105.342 32.8182C104.906 33.779 104.599 34.7398 104.47 35.7006C105.137 34.7398 105.907 33.6492 106.804 32.4287C107.702 31.1823 108.625 30.0397 109.574 28.949C110.524 27.8584 111.473 26.9236 112.396 26.1705C113.345 25.4174 114.166 25.0279 114.935 25.0279C115.217 25.0279 115.525 25.0799 115.859 25.1578C116.192 25.2616 116.5 25.3655 116.782 25.5213C117.064 25.6512 117.295 25.807 117.475 25.9368C117.654 26.0666 117.757 26.1705 117.782 26.2484C117.654 26.7158 117.398 27.365 116.962 28.196C116.525 29.027 116.064 29.8839 115.576 30.7668C115.089 31.6757 114.627 32.5326 114.217 33.3895C113.807 34.2205 113.55 34.8956 113.473 35.415C114.627 33.831 115.705 32.3768 116.705 31.0784C117.705 29.78 118.654 28.6634 119.552 27.7545C120.45 26.8197 121.271 26.1186 122.04 25.6252C122.81 25.1318 123.528 24.8721 124.195 24.8721C124.656 24.8721 125.092 25.002 125.503 25.2357C125.913 25.4953 126.195 25.8589 126.375 26.3263C126.17 27.0274 125.811 27.8844 125.349 28.8971C124.862 29.8839 124.374 30.9486 123.887 32.0392C123.4 33.1558 122.963 34.2205 122.579 35.3111C122.194 36.4018 121.989 37.3366 121.989 38.1935C121.989 38.6869 122.066 39.0245 122.194 39.1803C122.322 39.3361 122.527 39.414 122.784 39.414C123.066 39.414 123.323 39.3621 123.579 39.2582C123.836 39.1543 124.015 39.1024 124.118 39.1024C124.246 39.2063 124.349 39.3101 124.374 39.466C124.4 39.5958 124.4 39.7516 124.4 39.8555C123.938 40.245 123.451 40.5566 122.963 40.7903C122.476 41.05 121.912 41.1538 121.322 41.1538C120.758 41.1538 120.296 41.05 119.937 40.8682C119.578 40.6864 119.27 40.4268 119.039 40.0892C118.808 39.7516 118.629 39.388 118.552 38.9466C118.449 38.5311 118.424 38.0637 118.424 37.5703C118.424 36.7653 118.526 35.9603 118.731 35.1813C118.937 34.3763 119.193 33.6232 119.475 32.8961C119.757 32.169 120.091 31.4939 120.399 30.8707C120.758 30.1436 121.04 29.5982 121.271 29.1049Z" fill="white"/>
<path d="M161.309 25.6253C161.54 25.6253 161.822 25.6772 162.13 25.7551C162.437 25.833 162.745 25.9369 163.002 26.0667C163.258 26.1965 163.489 26.3264 163.643 26.4822C163.822 26.612 163.899 26.7678 163.899 26.8717C163.438 27.8585 163.002 28.8712 162.591 29.884C162.181 30.8967 161.847 31.8575 161.565 32.7923C161.283 33.7272 161.078 34.5841 160.924 35.3891C160.77 36.1941 160.693 36.8952 160.693 37.4925C160.693 38.1676 160.77 38.713 160.898 39.1544C161.027 39.5959 161.283 39.9075 161.591 40.0892C161.309 40.271 160.95 40.4268 160.488 40.5567C160.052 40.6865 159.642 40.7384 159.282 40.7384C158.026 40.7384 157.384 39.8555 157.384 38.0897C157.384 36.7394 157.82 34.8957 158.718 32.5327C158.256 33.6233 157.718 34.636 157.102 35.5968C156.487 36.5576 155.871 37.3886 155.23 38.1417C154.589 38.8688 153.947 39.466 153.306 39.9334C152.665 40.4009 152.075 40.6605 151.536 40.7644C150.664 40.7644 149.972 40.3749 149.433 39.5699C148.894 38.7649 148.612 37.7522 148.612 36.5057C148.612 35.1814 148.894 33.7531 149.459 32.273C150.023 30.7928 150.741 29.4165 151.613 28.1701C152.485 26.8977 153.46 25.859 154.486 25.002C155.512 24.1451 156.512 23.7296 157.487 23.7296C157.718 23.8075 157.974 23.9374 158.282 24.1451C158.564 24.3528 158.846 24.6125 159.129 24.8982C159.385 25.1838 159.616 25.4694 159.821 25.7811C160.001 26.0667 160.103 26.3264 160.129 26.5341C159.18 26.664 158.231 27.1314 157.231 27.9104C156.23 28.6894 155.332 29.6243 154.512 30.7409C153.691 31.8315 153.05 33.026 152.511 34.2725C151.998 35.5189 151.742 36.7134 151.742 37.7781C151.742 38.2196 151.895 38.5052 152.229 38.6351C152.921 38.5052 153.691 37.908 154.589 36.8693C155.486 35.8305 156.564 34.2465 157.82 32.0652C158.051 31.6498 158.308 31.1564 158.616 30.637C158.898 30.1177 159.206 29.5723 159.513 29.0011C159.821 28.4298 160.129 27.8585 160.411 27.2612C160.77 26.7419 161.052 26.1706 161.309 25.6253Z" fill="white"/>
<path d="M163.13 51.8007C162.797 51.6968 162.617 51.3592 162.566 50.736C162.463 50.4244 162.412 50.0608 162.361 49.6194C162.335 49.2039 162.31 48.7105 162.31 48.1652C162.31 47.6718 162.387 46.9967 162.566 46.1138C162.72 45.2568 162.951 44.2701 163.259 43.1794C163.541 42.0888 163.9 40.8943 164.336 39.6478C164.746 38.3754 165.234 37.077 165.747 35.7786C166.388 34.1427 166.926 32.7144 167.388 31.5199C167.85 30.3254 168.26 29.2867 168.568 28.4038C168.876 27.5209 169.132 26.7938 169.338 26.2225C169.543 25.6512 169.697 25.1579 169.825 24.7683C169.927 24.4827 170.056 24.1451 170.235 23.7296C170.415 23.3141 170.646 22.9246 170.876 22.5092C171.133 22.0937 171.364 21.7042 171.62 21.3406C171.877 20.9771 172.108 20.6914 172.313 20.5096C173.134 20.6395 173.903 20.8472 174.647 21.1588C175.365 21.4704 175.827 21.7561 175.981 22.0417C175.647 22.3533 175.288 22.8208 174.852 23.4959C174.442 24.1451 174.031 24.8722 173.621 25.6253C173.211 26.4043 172.851 27.1833 172.518 27.9883C172.185 28.7933 171.954 29.5204 171.774 30.1177C172.005 29.7022 172.313 29.2867 172.698 28.7933C173.082 28.3259 173.647 27.6767 174.416 26.8458C175.288 25.9369 176.109 25.2617 176.853 24.7683C177.622 24.275 178.289 24.0412 178.853 24.0412C179.751 24.0412 180.469 24.3009 181.059 24.7943C181.624 25.2877 181.931 25.9369 181.931 26.7159C181.931 28.4298 181.649 30.1177 181.085 31.7796C180.521 33.4415 179.726 34.9736 178.648 36.3239C178.238 36.8433 177.776 37.3367 177.238 37.8301C176.699 38.2975 176.135 38.7389 175.545 39.1025C174.955 39.466 174.39 39.7517 173.826 39.9854C173.262 40.1931 172.749 40.297 172.313 40.297C171.902 40.297 171.518 40.2191 171.21 40.0373C170.902 39.8556 170.671 39.6478 170.569 39.3881C171.492 38.8428 172.364 38.0898 173.236 37.103C174.108 36.1422 174.903 34.9996 175.647 33.7272C176.391 32.4548 177.032 31.0785 177.571 29.6243C178.11 28.1441 178.546 26.664 178.828 25.1319C177.93 25.5993 177.135 26.1187 176.417 26.6899C175.699 27.2353 174.98 27.9883 174.288 28.8712C173.441 29.9099 172.775 30.7669 172.287 31.3901C171.8 32.0393 171.389 32.5846 171.082 33.0261C170.774 33.4675 170.517 33.909 170.312 34.2985C170.107 34.688 169.902 35.1814 169.671 35.7527C169.337 36.5057 168.953 37.5185 168.517 38.7649C168.081 40.0114 167.645 41.4136 167.183 42.9457C166.721 44.4778 166.26 46.1397 165.824 47.8796C165.387 49.6194 164.926 51.3592 164.515 53.0991C164.259 53.0471 164.028 52.8654 163.849 52.5278C163.669 52.32 163.515 52.1642 163.438 52.0604C163.336 51.9305 163.259 51.8526 163.13 51.8007Z" fill="white"/>
<path d="M203.811 39.414C203.811 38.5831 203.887 37.5963 204.067 36.4797C204.221 35.3631 204.477 34.1426 204.785 32.8702C205.093 31.5978 205.478 30.2474 205.914 28.8452C206.35 27.4429 206.837 26.0407 207.376 24.6384C207.837 23.392 208.402 22.1196 209.017 20.8212C209.633 19.5488 210.326 18.2763 211.044 17.0559C211.762 15.8094 212.531 14.6409 213.301 13.5243C214.096 12.4077 214.865 11.3949 215.686 10.4601C216.071 10.4601 216.456 10.512 216.892 10.5899C217.328 10.6938 217.738 10.7977 218.149 10.9535C218.559 11.1093 218.944 11.291 219.277 11.4988C219.611 11.7065 219.893 11.9143 220.098 12.148C218.328 13.9657 216.764 15.8354 215.353 17.6791C213.942 19.5488 212.839 21.2886 212.018 22.9246C211.582 23.8334 211.172 24.6644 210.813 25.4434C210.454 26.2225 210.12 27.0015 209.813 27.7805C209.505 28.5595 209.223 29.3126 208.992 30.0916C208.735 30.8707 208.504 31.6757 208.299 32.5326C212.813 26.7158 216.148 23.8075 218.328 23.8075C218.944 23.8075 219.585 24.0152 220.303 24.4047C220.996 24.8202 221.637 25.3655 222.176 26.0407C221.457 26.8457 220.688 27.8324 219.918 28.9491C219.149 30.0916 218.431 31.2342 217.789 32.3768C217.148 33.5194 216.61 34.61 216.199 35.5708C215.789 36.5576 215.584 37.2847 215.584 37.7521C215.584 37.9858 215.609 38.1416 215.686 38.2455C215.763 38.3234 215.917 38.3753 216.148 38.3753C216.507 38.3753 216.789 38.3234 216.994 38.2455C217.2 38.1416 217.328 38.1156 217.379 38.1156C217.507 38.2974 217.559 38.4273 217.584 38.5052C217.61 38.5831 217.61 38.635 217.61 38.6869C217.61 38.7908 217.482 38.9206 217.2 39.1024C216.917 39.2842 216.584 39.466 216.199 39.6477C215.814 39.8295 215.43 39.9853 215.045 40.1411C214.66 40.271 214.378 40.3489 214.199 40.3489C213.968 40.3489 213.737 40.271 213.506 40.1411C213.275 40.0113 213.07 39.8295 212.89 39.6218C212.711 39.414 212.583 39.1803 212.48 38.9206C212.377 38.661 212.326 38.3753 212.326 38.0897C212.326 37.7261 212.429 37.2068 212.634 36.5056C212.839 35.8045 213.121 34.9736 213.455 34.0387C213.814 33.1039 214.224 32.0652 214.712 30.9486C215.199 29.832 215.738 28.6894 216.302 27.5208C216.302 27.417 216.251 27.391 216.174 27.391C216.097 27.391 215.917 27.4949 215.635 27.6766C215.353 27.8584 215.071 28.0662 214.814 28.2479C213.968 28.8971 213.121 29.6762 212.275 30.611C211.428 31.5458 210.582 32.5845 209.787 33.7011C208.966 34.8178 208.222 35.9863 207.504 37.2327C206.786 38.4792 206.17 39.7256 205.657 40.9981C205.58 41.1539 205.478 41.3097 205.35 41.4655C205.221 41.6213 205.093 41.6732 204.99 41.6732C204.913 41.6732 204.811 41.5953 204.683 41.4135C204.554 41.2577 204.426 41.05 204.324 40.7903C204.221 40.5306 204.118 40.2969 204.016 40.0372C203.862 39.8295 203.811 39.5958 203.811 39.414Z" fill="white"/>
<path d="M233.409 25.6253C233.64 25.6253 233.922 25.6772 234.23 25.7551C234.538 25.833 234.846 25.9369 235.102 26.0667C235.359 26.1965 235.59 26.3264 235.743 26.4822C235.923 26.612 236 26.7678 236 26.8717C235.538 27.8585 235.102 28.8712 234.692 29.884C234.281 30.8967 233.948 31.8575 233.666 32.7923C233.384 33.7272 233.179 34.5841 233.025 35.3891C232.871 36.1941 232.794 36.8952 232.794 37.4925C232.794 38.1676 232.871 38.713 232.999 39.1544C233.127 39.5959 233.384 39.9075 233.692 40.0892C233.409 40.271 233.05 40.4268 232.589 40.5567C232.153 40.6865 231.742 40.7384 231.383 40.7384C230.126 40.7384 229.485 39.8555 229.485 38.0897C229.485 36.7394 229.921 34.8957 230.819 32.5327C230.357 33.6233 229.818 34.636 229.203 35.5968C228.587 36.5576 227.972 37.3886 227.33 38.1417C226.689 38.8688 226.048 39.466 225.407 39.9334C224.766 40.4009 224.176 40.6605 223.637 40.7644C222.765 40.7644 222.072 40.3749 221.534 39.5699C220.995 38.7649 220.713 37.7522 220.713 36.5057C220.713 35.1814 220.995 33.7531 221.559 32.273C222.124 30.7928 222.842 29.4165 223.714 28.1701C224.586 26.8977 225.561 25.859 226.587 25.002C227.613 24.1451 228.613 23.7296 229.588 23.7296C229.818 23.8075 230.075 23.9374 230.383 24.1451C230.665 24.3528 230.947 24.6125 231.229 24.8982C231.486 25.1838 231.716 25.4694 231.922 25.7811C232.101 26.0667 232.204 26.3264 232.229 26.5341C231.28 26.664 230.331 27.1314 229.331 27.9104C228.331 28.6894 227.433 29.6243 226.612 30.7409C225.791 31.8315 225.15 33.026 224.612 34.2725C224.099 35.5189 223.842 36.7134 223.842 37.7781C223.842 38.2196 223.996 38.5052 224.329 38.6351C225.022 38.5052 225.791 37.908 226.689 36.8693C227.587 35.8305 228.664 34.2465 229.921 32.0652C230.152 31.6498 230.408 31.1564 230.716 30.637C230.998 30.1177 231.306 29.5723 231.614 29.0011C231.922 28.4298 232.229 27.8585 232.512 27.2612C232.871 26.7419 233.153 26.1706 233.409 25.6253Z" fill="white"/>
<path d="M128.734 30.9227C128.734 29.1309 128.94 27.3911 129.35 25.6772C129.76 23.9633 130.35 22.3274 131.094 20.7953C131.838 19.2632 132.736 17.835 133.787 16.5625C134.839 15.2642 135.968 14.1735 137.224 13.2127C138.481 12.2779 139.789 11.5508 141.2 11.0055C142.611 10.4861 144.047 10.2264 145.535 10.2264C147.279 10.2264 148.613 10.59 149.587 11.343C150.562 12.0701 151.049 13.1089 151.049 14.4332C151.049 14.9526 150.972 15.4719 150.844 15.9913C150.716 16.5366 150.511 17.0559 150.229 17.5753C149.972 18.0946 149.664 18.588 149.305 19.0814C148.946 19.5748 148.561 19.9903 148.125 20.3538C147.484 20.25 146.894 19.9643 146.432 19.445C145.945 18.9516 145.663 18.3803 145.535 17.7051C146.407 16.978 147.099 16.199 147.638 15.394C148.151 14.589 148.407 13.8619 148.407 13.1868C148.407 12.0701 147.715 11.4989 146.33 11.4989C145.74 11.4989 145.15 11.6287 144.534 11.8624C143.919 12.0961 143.303 12.4337 142.662 12.8751C142.046 13.3166 141.431 13.8359 140.841 14.4332C140.251 15.0564 139.712 15.7056 139.199 16.4587C135.711 21.5483 133.967 26.7419 133.967 32.0652C133.967 33.9609 134.249 35.467 134.839 36.6096C135.429 37.7522 136.173 38.4273 137.147 38.6351C138.225 38.3754 139.61 37.6743 141.251 36.5317C142.893 35.3891 144.714 33.909 146.689 32.0652C146.945 32.3249 147.099 32.5846 147.151 32.8702C146.432 33.831 145.663 34.7659 144.894 35.6488C144.124 36.5317 143.329 37.3367 142.585 38.0897C141.816 38.8168 141.072 39.466 140.328 40.0373C139.584 40.5826 138.892 41.0241 138.276 41.3357C135.147 41.3357 132.787 40.4528 131.197 38.687C129.555 36.9212 128.734 34.3244 128.734 30.9227Z" fill="white"/>
<path d="M184.215 30.9227C184.215 29.1309 184.42 27.3911 184.83 25.6772C185.241 23.9633 185.831 22.3274 186.575 20.7953C187.318 19.2632 188.216 17.835 189.268 16.5625C190.319 15.2642 191.448 14.1735 192.705 13.2127C193.936 12.2779 195.27 11.5508 196.68 11.0055C198.091 10.4861 199.528 10.2264 201.015 10.2264C202.759 10.2264 204.093 10.59 205.068 11.343C206.042 12.0701 206.53 13.1089 206.53 14.4332C206.53 14.9526 206.453 15.4719 206.325 15.9913C206.196 16.5366 205.991 17.0559 205.709 17.5753C205.453 18.0946 205.145 18.588 204.786 19.0814C204.427 19.5748 204.042 19.9903 203.606 20.3538C202.965 20.25 202.375 19.9643 201.913 19.445C201.426 18.9516 201.143 18.3803 201.015 17.7051C201.887 16.978 202.58 16.199 203.118 15.394C203.631 14.589 203.888 13.8619 203.888 13.1868C203.888 12.0701 203.195 11.4989 201.81 11.4989C201.22 11.4989 200.63 11.6287 200.015 11.8624C199.399 12.0961 198.784 12.4337 198.142 12.8751C197.527 13.3166 196.911 13.8359 196.321 14.4332C195.731 15.0564 195.193 15.7056 194.68 16.4587C191.191 21.5483 189.447 26.7419 189.447 32.0652C189.447 33.9609 189.729 35.467 190.319 36.6096C190.909 37.7522 191.653 38.4273 192.628 38.6351C193.705 38.3754 195.09 37.6743 196.732 36.5317C198.373 35.3891 200.194 33.909 202.169 32.0652C202.426 32.3249 202.58 32.5846 202.631 32.8702C201.913 33.831 201.143 34.7659 200.374 35.6488C199.604 36.5317 198.809 37.3367 198.066 38.0897C197.296 38.8168 196.552 39.466 195.808 40.0373C195.065 40.5826 194.372 41.0241 193.756 41.3357C190.627 41.3357 188.267 40.4528 186.677 38.687C185.01 36.9212 184.215 34.3244 184.215 30.9227Z" fill="white"/>
</svg>
